/* XPM */
static char *bitcoinrent64[] = {
/* columns rows colors chars-per-pixel */
"64 64 166 2 ",
"   c None",
".  c #92671A",
"X  c #906B1A",
"o  c #9D6F1C",
"O  c #9E761D",
"+  c #AD7B1E",
"@  c #B2771E",
"#  c #B07B1E",
"$  c #A67927",
"%  c #AE8320",
"&  c #BF8A22",
"*  c #B4882B",
"=  c #A68232",
"-  c #FE8400",
";  c #FC8B07",
":  c #F58A0E",
">  c #FD8D0B",
",  c #FE910F",
"<  c #FA8E11",
"1  c #FD9213",
"2  c #F7921B",
"3  c #FA941C",
"4  c #FB991D",
"5  c #C38621",
"6  c #C18A21",
"7  c #CC8D2A",
"8  c #D38C23",
"9  c #C19223",
"0  c #CB9A25",
"q  c #DE9525",
"w  c #DC9C26",
"e  c #D4992B",
"r  c #DB9E2B",
"t  c #DF9F34",
"y  c #D59F3C",
"u  c #E59625",
"i  c #E59C26",
"p  c #EB9E27",
"a  c #E29B28",
"s  c #E99B2B",
"d  c #F79625",
"f  c #F89624",
"g  c #F79825",
"h  c #F89825",
"j  c #F59629",
"k  c #F69B2C",
"l  c #F89B2B",
"z  c #EE9934",
"x  c #EF9D3B",
"c  c #F69D33",
"v  c #F99E32",
"b  c #F49F3B",
"n  c #DEA427",
"m  c #E1A227",
"M  c #ECA027",
"N  c #E4A52A",
"B  c #EDA52B",
"V  c #E6A829",
"C  c #EDAA2D",
"Z  c #FDA226",
"A  c #FEAA26",
"S  c #F3A32A",
"D  c #FCA429",
"F  c #F4AA29",
"G  c #FDAB2A",
"H  c #F1B02A",
"J  c #FFB42C",
"K  c #F4BE2E",
"L  c #FFBA2D",
"P  c #EBA434",
"I  c #E5AB35",
"U  c #ECAC32",
"Y  c #F7A037",
"T  c #FAA135",
"R  c #F8AA34",
"E  c #F5A13C",
"W  c #F9A33B",
"Q  c #FEB331",
"!  c #FFBF30",
"~  c #EEA84D",
"^  c #F5A543",
"/  c #FAA642",
"(  c #FAA846",
")  c #F3A649",
"_  c #F5A84B",
"`  c #FBAA4B",
"'  c #E1B241",
"]  c #EBA754",
"[  c #EDA954",
"{  c #EEAC5B",
"}  c #F2AA53",
"|  c #FBAE53",
" . c #F2AE5C",
".. c #FBB057",
"X. c #FBB25B",
"o. c #EFB164",
"O. c #EEB36B",
"+. c #F1B264",
"@. c #F1B56B",
"#. c #E6B575",
"$. c #EDB672",
"%. c #EDB874",
"&. c #E6B77B",
"*. c #E8B77A",
"=. c #ECBC7C",
"-. c #F0BD7D",
";. c #ECBD82",
":. c #E6BD89",
">. c #E9BF88",
",. c #EAC085",
"<. c #ECC28C",
"1. c #F0C186",
"2. c #E9C591",
"3. c #EBC799",
"4. c #EBCC9E",
"5. c #DDCEAC",
"6. c #E4CCA3",
"7. c #EBCCA3",
"8. c #E3CFAA",
"9. c #EACFAB",
"0. c #EAD1AB",
"q. c #F0D1AA",
"w. c #E4D1B0",
"e. c #EAD3B4",
"r. c #E2D2BD",
"t. c #E9D6BD",
"y. c #E7D9BF",
"u. c #EAD8BC",
"i. c #DDD8C9",
"p. c #E5DBC5",
"a. c #EBDCC3",
"s. c #E8DCC8",
"d. c #E5E1CA",
"f. c #ECE1CD",
"g. c #F1E5CF",
"h. c #EBE4D4",
"j. c #EEE8D7",
"k. c #EAE5DB",
"l. c #E7EBDB",
"z. c #EDEADB",
"x. c #F0E6D1",
"c. c #F2EBDC",
"v. c #DEF0E5",
"b. c #E5ECE3",
"n. c #EBECE5",
"m. c #E5EBEC",
"M. c #ECEEEA",
"N. c #F3EDE3",
"B. c #ECF0E7",
"V. c #ECF2EC",
"C. c #F5F0E4",
"Z. c #F3F3EB",
"A. c #E7EDF2",
"S. c #E4F6F1",
"D. c #EDF4F4",
"F. c #E2F8F6",
"G. c #EFF9F6",
"H. c #ECF5FB",
"J. c #E7FEFE",
"K. c #EDFBFE",
"L. c #F4F6F2",
"P. c #FBF7F1",
"I. c #F4F9F6",
"U. c #FAF9F6",
"Y. c #F5FEFE",
"T. c #FDFFFF",
/* pixels */
"                                                                                                                                ",
"                                                                                                                                ",
"                                                                                                                                ",
"                                                              .                                                                 ",
"                                                6   L G J G J B G L S G L q u                                                   ",
"                                          % 0 m F G l D h l d h f h h f Z D l D D                                               ",
"                                        n H G h h d d d d h h h h f f h f h h f f G L L                                         ",
"                                    L G Z h d d h h h h h h h h h h h h h h h h f f f G L J                                     ",
"                                K V G d d h h h h h h h h h h h h h h h h h d h h h d d d Z G G                                 ",
"                            O G G h h h h h h d h h h h d h h h h h h f h h h h h h h d d d d h s 7                             ",
"                          a w G h h h h h h h h d h h d h h d h d h h h h h h h h h h h h h h h G B                             ",
"                          L Z h d h h h h h h h h h h h h h h h h h h h h h d h h d h h h h h d f D G S                         ",
"                      a M G d f h h h d h h h h h h d h h h h h h h d h h h h h h h d h h h l h h h f S                         ",
"                      G h h d f h d h h h h h d h h h h h h h h l h l h l h h l h l l l l l l l l l f D L U                     ",
"                  # N G d l h l l l h h h h h l l l l h l f d > h l l l l l l l l l l l l l l l l l f f h a $                   ",
"                  u G h h l l l l l l l l l h h l l l l 3 l #.c 3 v l l l l l l l l l l l l l l l l h f h G G                   ",
"                G Z h h h l l l l l l c 3 l c > 3 l v 1 f 9.D.8.3 3 v l c v v v v v v v v v v l l h f h d d D L                 ",
"                J h h h h l l l c c l h ; =.8.[ 2 c f f $.K.Y.Z.*.c v v v T v v v v v v c v c l l l h h h h h J                 ",
"              L Z d h h h l l l c v l d o.n.K.B.$.; - @.z.Y.Y.I.5.f v v W T W v W T W T W W v l l l h h h h h Z Q               ",
"              J d d h h h l l l T T W Y :.Z.Y.Y.N.*.} c.Y.Y.Y.q.W l T W W W W W W W W W W v v l l l h h h h d d G               ",
"            J G d h h h h l l l l v l h f 1.D.Y.Y.C.C.Y.Y.Y.P.@.- W W W W / W W / / / W W v v l l l h h h h h d Z U             ",
"            J h h h d h h l l l h f *.^ > f +.a.Y.Y.Y.Y.Y.Y.Y.4.c c / ( / / / / / / / W W c v v l l h h h h d h d G y           ",
"            G f h h h h h l l 2 h -.A.h.{ h ;  .N.Y.Y.Y.Y.Y.Y.Y.t.) h W / / ` / / ` / W W v v v l l h f d h h h d Z I           ",
"          J h f h h d h h h l d [ b.Y.Y.j. .3 +.Y.Y.Y.Y.Y.Y.Y.Y.Y.s.$.c W ` ` ` ` / W W W v v l l l l d h h h h h h U           ",
"          D f h d h h h h h l l E 2.N.Y.Y.N.u.c.Y.Y.Y.U.Y.Y.Y.Y.Y.Y.c.%.c / | | ` / / W W v v v l l d h h h h h h f G '         ",
"        8 D f f h h h h h d l l 1 f <.Z.Y.Y.U.Y.Y.Y.u.1.n.Y.Y.Y.Y.Y.Y.K.7.) v / ` / / W W T v l l l h h d h h h h h D           ",
"        6 J d h h h h d h l l l v h 3 } x.Y.Y.Y.Y.z.@.h @.a.Y.Y.Y.Y.Y.Y.Z.0. ./ ` ) / W W W v v c l h h h h d h h h h G         ",
"        L D d h h h h h h l l l v v f 3 4.Y.Y.Y.L.;.( W / +.a.K.Y.Y.Y.Y.Y.Y.s.o.l c / W W l v > 3 l h h h h h h h f 3 J         ",
"        G h h h h d h h h h l l l v < @.x.Y.Y.P.e.b ` ..../ _ 7.U.Y.Y.Y.Y.Y.Y.c.;.c v W l h $.{ 1 h h h d h h h h h f G         ",
"        M h d h h h h h h h l l l h l a.Y.Y.Y.x.} / ..+.....| ^ q.Y.Y.Y.Y.Y.Y.Y.c.;.v f < ;.b.z.} 4 l h h h h h h h 4 Z         ",
"        L h f h h h h h d h l l l 1 ;.C.Y.Y.U.9.l | | ..+...` } u.Y.Y.Y.Y.Y.Y.Y.Y.K.9.) =.B.Y.Y.i.c h h h h h d h h d J         ",
"        G f h h h h h d h h l l l h u.Y.Y.Y.Y.@.v ..| ........s.U.Y.C.g.U.Y.Y.Y.Y.Y.P.P.Y.Y.Y.B.;.; h h h h h h h h h l =       ",
"      X F h h h h h h h h h l l > } c.Y.Y.Y.L.@.l | ..../  .q.Y.Y.Y.3.} 9.L.Y.Y.Y.Y.Y.Y.Y.Y.K.=.2 < l h h h h h h h f Z         ",
"        J d d h d h h h h h l l 3  .Y.Y.Y.Y.Y.q.3 T ` T ) 9.Z.Y.Y.u. .l / 3.L.Y.Y.Y.Y.Y.Y.P.t.j 1 l l l d h h h h d f G         ",
"        G Z h h h h h d h h l c < o.Y.Y.Y.Y.Y.C.<.} ^ =.t.Y.Y.Y.N.O.| X.| / -.f.Y.Y.Y.Y.Y.9.h f l l l f h h h d h h h B         ",
"        H h f h h h h h h h l l 3 ^ Z.Y.Y.Y.Y.Y.L.f.Z.P.Y.Y.Y.L.7.) | X.../ h @.C.Y.Y.Y.U.;.< h v l l f h h h h h h d S         ",
"        V G d h h h d h h h l l h f d.Y.Y.Y.Y.Y.Y.Y.Y.Y.Y.Y.Y.K.+.` ....+.` / @.Y.Y.Y.Y.Y.L.;.3 > h l h h h h h h f h J         ",
"        L l d h h h h h h h l l v 1 O.H.Y.Y.Y.Y.Y.Y.Y.Y.Y.Y.Y.N. .W +.....T =.z.Y.Y.U.C.Y.Y.L.7.x 1 l h h h h h h h Z P         ",
"          G d h h d h h d h l l l 4 1 <.Z.Y.Y.Y.Y.Y.Y.Y.Y.Y.Y.P.+.f ` W v +.k.Y.Y.Y.0.@.x.Y.Y.U.6.c h h h h d h h f h R         ",
"        9 C d h h h h h h d l l l T h c 3.N.Y.Y.Y.Y.C.c.Y.Y.Y.Y.s.@.v E <.c.Y.Y.Y.z.b - ) q.Y.K.6.c 1 l h h h h h f l           ",
"          n h h h h h h h d l l l v T h 3 @.a.h.h.p.O.~ K.Y.Y.Y.Y.c.a.c.Y.Y.Y.Y.Y.c.%.f 1 ^ e.r.l , h h h h h h f h G           ",
"          0 G f h d h h h h l l l v v W T l l ^ ^ Y 4 _ Z.Y.Y.Y.Y.Y.Y.Y.Y.Y.Y.Y.Y.Y.c.;.j > d b f l l d h h h h f D             ",
"          + F h h h h h h h l l l v T T W W ^ v W ( / l a.Y.Y.Y.Y.Y.Y.Y.Y.Y.L.7.x.Y.Y.Y.e.^ l v v l l l h h f d h J             ",
"            w Z d h h h h h h l l v v W W / / / / / / l $.J.Y.Y.Y.Y.Y.Y.Y.z.=.< o.c.Y.Y.m.O.v c v l l h h d f f G J             ",
"              G h h h h h h l l l v T W W W W W W W W v 4 =.h.Y.Y.Y.Y.K.p.} h 3 2 ) a.S.w.j l v l l l h h f h f J               ",
"              ! Z f h h h f l l l l v T W W b W W W W W h h +.9.a.N.e.;.l , T T v f } *.b 3 v v c l l h h h f Z J               ",
"                F h d h f h h l l l v T W T v T v T T T T l 1 3 W d 3 1 h T Y T v h < l h v v c l l l h h h f G                 ",
"                L G h f h h h l l v v v v v v v v l v v v l c l 3 l h v Y l l l l v l l v l l l l l l h h h l D                 ",
"                  J G f f h h l l D v v v l l l l l l c l l l l c l l l l l l l l l l l l l l l l l l l f Z R                   ",
"                  O w Z f f f l l l l l l l l l l l l l l l l l l l l l l l l l l l l h l l l l l l l j Z S s                   ",
"                    s L D h h l l l l l l l l l l l l l h l l l h l h h l d h h h h h h h h h h h h h h S                       ",
"                        B h h l h l l h d d d h f h h h h d h h h h h d h h h h h h f h h h f h h h h S B                       ",
"                        p J D h h h h h h h h h h h h h h h h h h h h h d h h h h h d h h h h f h h G                           ",
"                            N G h h h h h f h h h h h d h h d h h d h h h h h h h h h h h h h f Z a N                           ",
"                            # u h h f h h h h h d h h h h h h h h h h h h h d h h h h h h h h h J *                             ",
"                                G J D h d d h h h h h h d h h h h h h d h h h h h h h d h h G J                                 ",
"                                    L J G h h h h h h h h h h h h h h h d h h h h f f D D G                                     ",
"                                        J J G h f h h f f h f f h d h h d h d d l G D C                                         ",
"                                              J D l G D f l h f h h h h Z h G F B N e                                           ",
"                                                  8 6 L J p L G B J J J G J   e                                                 ",
"                                                                X                                                               ",
"                                                                                                                                ",
"                                                                                                                                ",
"                                                                                                                                "
};
