/* XPM */
static char *bitcoinrent16[] = {
/* columns rows colors chars-per-pixel */
"16 16 172 2 ",
"   c None",
".  c #CB7D1E",
"X  c #CD7E1F",
"o  c #D0801E",
"O  c #D1811E",
"+  c #D1801F",
"@  c #D4831E",
"#  c #D6841F",
"$  c #D68320",
"%  c #D88520",
"&  c #DB8620",
"*  c #DB8720",
"=  c #DD8821",
"-  c #DC8C2A",
";  c #D88C2E",
":  c #DF8E2D",
">  c #DF8F2F",
",  c #DF943B",
"<  c #D9923C",
"1  c #DF943D",
"2  c #DC943F",
"3  c #E08A21",
"4  c #E18A22",
"5  c #E48C22",
"6  c #E78F25",
"7  c #E88D22",
"8  c #E88E22",
"9  c #E98F22",
"0  c #E88F23",
"q  c #E88F24",
"w  c #E28F2A",
"e  c #EB9023",
"r  c #EC9022",
"t  c #EC9123",
"y  c #EC9124",
"u  c #EF9224",
"i  c #E1902E",
"p  c #ED952A",
"a  c #F09322",
"s  c #F19423",
"d  c #F29423",
"f  c #F69521",
"g  c #F59623",
"h  c #F79723",
"j  c #F59625",
"k  c #F69724",
"l  c #F79625",
"z  c #F69725",
"x  c #F79725",
"c  c #F59726",
"v  c #F79726",
"b  c #F89622",
"n  c #F89722",
"m  c #F89723",
"M  c #F89724",
"N  c #F69826",
"B  c #F69927",
"V  c #F89824",
"C  c #F99824",
"Z  c #F99924",
"A  c #F89825",
"S  c #F89826",
"D  c #F89927",
"F  c #F99927",
"G  c #F99A27",
"H  c #F79929",
"J  c #F3992D",
"K  c #F3992E",
"L  c #F69B2D",
"P  c #F59A2E",
"I  c #F59A2F",
"U  c #F89928",
"Y  c #F99928",
"T  c #F99A28",
"R  c #F89A29",
"E  c #F99A29",
"W  c #FA9A28",
"Q  c #FA9B28",
"!  c #F89B2B",
"~  c #F99C2B",
"^  c #F99B2D",
"/  c #FA9D2F",
"(  c #EA9631",
")  c #E1953A",
"_  c #E3973D",
"`  c #EE9B39",
"'  c #EE9C3B",
"]  c #E99B3E",
"[  c #ED9C3C",
"{  c #F09931",
"}  c #F79D31",
"|  c #F29C35",
" . c #F19D37",
".. c #F29D36",
"X. c #F79F35",
"o. c #F99E31",
"O. c #FA9F31",
"+. c #F89E32",
"@. c #F89E33",
"#. c #F99F33",
"$. c #FA9E32",
"%. c #FA9F33",
"&. c #F09D39",
"*. c #F19F3B",
"=. c #F59F3A",
"-. c #F49F3B",
";. c #FAA033",
":. c #F9A035",
">. c #FAA035",
",. c #F7A139",
"<. c #F7A23D",
"1. c #F9A138",
"2. c #F9A339",
"3. c #FAA23A",
"4. c #F8A43E",
"5. c #F9A43F",
"6. c #E79D44",
"7. c #E8A04B",
"8. c #F3A241",
"9. c #F2A245",
"0. c #F8A440",
"q. c #F8A544",
"w. c #F1A449",
"e. c #E8A351",
"r. c #F0A751",
"t. c #F3AC55",
"y. c #F0AC5D",
"u. c #E8B06E",
"i. c #ECB36E",
"p. c #F5B263",
"a. c #EAB576",
"s. c #E5B77F",
"d. c #E9B77C",
"f. c #EDB97B",
"g. c #EDBB80",
"h. c #ECBD86",
"j. c #E4BB8B",
"k. c #F0C088",
"l. c #EBC293",
"z. c #E8C396",
"x. c #ECC495",
"c. c #E4C49E",
"v. c #F1C590",
"b. c #F3C894",
"n. c #F0C89A",
"m. c #ECCCA6",
"M. c #EECEA7",
"N. c #E9CEAB",
"B. c #F0CEA6",
"V. c #E5CCB0",
"C. c #E3CDB4",
"Z. c #E3CFB7",
"A. c #E7D2B8",
"S. c #E7D5BF",
"D. c #F2D4B2",
"F. c #E5D8C8",
"G. c #E6D8C9",
"H. c #E6DCCF",
"J. c #EEDDCA",
"K. c #E4DCD3",
"L. c #E4DFD8",
"P. c #E3DFDC",
"I. c #EAE0D5",
"U. c #EAE1D6",
"Y. c #E6E2DD",
"T. c #E7E4DF",
"R. c #E8E0D8",
"E. c #E9E2DA",
"W. c #EAE3DB",
"Q. c #EBE6DF",
"!. c #E7E8E9",
"~. c #EDEEEF",
/* pixels */
"                    - : >       ",
"        + = 5 x y v p i         ",
"        u g M n b M W +.-.      ",
"O   8 9 B L P &.J S Y /  .      ",
"o @ s Q <.i.z.c.e.I 1.:.O.,.<   ",
"X 4 z =.a.A.Q.!.u.8.q.>.F @._   ",
"  e N ;.h.H.B.J.Y.l.9.| K Q ]   ",
"  3 z X.g.L.t.v.U.R.S.j.7.N 5.  ",
"  t k %.x.T.M.N.m.D.~.C.( m [   ",
"  & j $.f.P.E.I.n.b.W.V.6.h 4.  ",
"  $ a R 3.p.k.G.K.F.Z.s.` T ' 2 ",
"  . r c o.2.0.y.d.r.w.*.U #.) 1 ",
"      q ! ~ E H f l V ^ { ..  , ",
"      7 d V A Z C G D }         ",
"        * 0 j y h 6 w ;         ",
"      % % #                     "
};
